<svg xmlns="http://www.w3.org/2000/svg" xml:space="preserve" width="194.969mm" height="132.214mm" version="1.1" style="shape-rendering:geometricPrecision; text-rendering:geometricPrecision; image-rendering:optimizeQuality; fill-rule:evenodd; clip-rule:evenodd"
     viewBox="0 0 13774.78 9341.09"
     xmlns:xlink="http://www.w3.org/1999/xlink">
 <defs>
  <style type="text/css">
   <![CDATA[
    .fil1 {fill:#FEFEFE}
    .fil0 {fill:#FFBD00}
   ]]>
  </style>
 </defs>
    <g id="Layer_x0020_1">
  <metadata id="CorelCorpID_0Corel-Layer"/>
        <polygon class="fil0" points="7294.76,0 7711.6,568.42 8374.76,795.79 7957.92,1364.22 7957.92,2065.27 7294.76,1856.85 6612.65,2065.27 6612.65,1364.21 6195.81,795.79 6877.92,568.42 "/>
        <path class="fil1" d="M10250.57 5096.86c0,644.21 341.05,1345.27 1080,1345.27 132.63,0 265.27,-18.95 397.89,-75.79 492.64,-208.42 682.11,-776.84 682.11,-1288.43 0,-663.16 -322.11,-1383.17 -1080,-1383.17 -94.74,0 -189.47,18.95 -284.21,37.9 -606.32,170.52 -795.79,795.79 -795.79,1364.22zm-75.79 -1989.48c75.79,-75.79 132.63,-132.63 208.42,-189.47 341.05,-284.21 776.84,-397.89 1212.63,-397.89 454.74,0 871.58,113.68 1231.58,378.95 682.11,492.64 947.37,1345.27 947.37,2160.01 0,871.58 -322.11,1743.16 -1061.06,2216.85 -360,227.37 -757.9,341.05 -1174.74,341.05 -397.89,0 -757.9,-113.68 -1080,-341.05 -56.84,-37.9 -113.68,-94.74 -189.47,-151.58 18.95,56.84 18.95,113.68 18.95,151.58l0 2065.27 -1345.27 -0.01 0 -6707.39 1231.58 0c0,151.58 0,322.11 0,473.69zm-6233.7 2842.12l0 -5153.7 1326.32 0 0 4983.18c0,151.58 18.95,397.89 170.52,492.64 113.68,94.74 341.05,56.84 492.64,37.9l0 1193.69c-473.69,75.79 -1080,75.79 -1477.9,-227.37 -416.84,-303.16 -511.58,-833.69 -511.58,-1326.32l0 -0.01zm2671.59 1553.69l0 -4869.49 1345.27 0 0 4869.49 -1345.27 0zm-5930.55 -3694.75l-682.11 0 0 -1098.95 682.11 -0.01 0 -132.63c0,-1042.11 587.37,-1610.53 1440,-1781.06 378.95,-75.79 852.63,-37.9 1155.8,0 0,378.95 0,776.84 0,1155.8 -132.63,0 -284.21,-18.95 -435.79,-18.95 -454.74,0 -814.74,151.58 -814.74,682.11l0 94.74 1117.9 0 0 1098.95 -1117.9 0.01 0 3694.75 -1345.27 0 0 -3694.75z"/>
 </g>
</svg>